<svg xmlns="http://www.w3.org/2000/svg" width="64" height="64" viewBox="0 0 64 64" fill="none">
  <defs>
    <linearGradient id="g" x1="12" y1="8" x2="52" y2="56" gradientUnits="userSpaceOnUse">
      <stop stop-color="#3B82F6"/>
      <stop offset="1" stop-color="#2563EB"/>
    </linearGradient>
    <clipPath id="c">
      <circle cx="46" cy="46" r="10"/>
    </clipPath>
  </defs>

  <path d="M32 6L52 13V28C52 39 44.2 49 32 54C19.8 49 12 39 12 28V13L32 6Z" fill="url(#g)"/>
  <path d="M32 15L44 19.5V28C44 35 39 40.5 32 43.5C25 40.5 20 35 20 28V19.5L32 15Z" fill="#EFF6FF"/>

  <g clip-path="url(#c)">
    <circle cx="46" cy="46" r="10" fill="#FFFFFF"/>
    <image href="/emby-upload.jpg" x="36" y="36" width="20" height="20" preserveAspectRatio="xMidYMid slice"/>
    <rect x="46" y="36" width="10" height="20" fill="#FFFFFF"/>
  </g>
  <circle cx="46" cy="46" r="10" fill="none" stroke="#2563EB" stroke-width="2"/>
</svg>
